<svg width="16" height="15" viewBox="0 0 16 15" fill="none" xmlns="http://www.w3.org/2000/svg">
<path fill-rule="evenodd" clip-rule="evenodd" d="M10.4423 2.01561C9.26049 1.48901 7.94008 1.35856 6.67804 1.6437C5.416 1.92884 4.27994 2.6143 3.43929 3.59785C2.59865 4.58141 2.09846 5.81035 2.01333 7.1014C1.9282 8.39245 2.26269 9.67643 2.9669 10.7619C3.67112 11.8473 4.70733 12.676 5.92101 13.1244C7.13468 13.5728 8.46078 13.6168 9.70154 13.25C10.9423 12.8831 12.0312 12.125 12.8059 11.0887C13.5806 10.0524 13.9996 8.79346 14.0003 7.49961V6.88666C14.0003 6.51847 14.2988 6.21999 14.667 6.21999C15.0352 6.21999 15.3337 6.51847 15.3337 6.88666V7.49999C15.3328 9.08137 14.8207 10.6205 13.8738 11.887C12.927 13.1536 11.5961 14.0802 10.0796 14.5286C8.56311 14.9769 6.94232 14.9231 5.45894 14.3751C3.97556 13.827 2.70907 12.8142 1.84836 11.4876C0.987654 10.1609 0.578839 8.59162 0.682888 7.01367C0.786938 5.43572 1.39828 3.93368 2.42573 2.73156C3.45318 1.52944 4.8417 0.691653 6.3842 0.343146C7.92669 -0.00536033 9.54052 0.154086 10.985 0.797706C11.3213 0.947559 11.4725 1.34168 11.3226 1.67799C11.1728 2.01431 10.7786 2.16546 10.4423 2.01561Z" fill="#3273DC"/>
<path fill-rule="evenodd" clip-rule="evenodd" d="M15.1385 1.69503C15.399 1.95525 15.3992 2.37736 15.139 2.63784L8.47229 9.31117C8.34729 9.4363 8.17769 9.50662 8.00082 9.50667C7.82395 9.50671 7.65431 9.43647 7.52925 9.3114L5.52925 7.3114C5.2689 7.05106 5.2689 6.62895 5.52925 6.3686C5.7896 6.10825 6.21171 6.10825 6.47206 6.3686L8.00042 7.89696L14.1957 1.6955C14.4559 1.43502 14.878 1.43481 15.1385 1.69503Z" fill="#3273DC"/>
</svg>
