<svg width="26" height="25" viewBox="0 0 26 25" fill="none" xmlns="http://www.w3.org/2000/svg">
<g filter="url(#filter0_d)">
<path fill-rule="evenodd" clip-rule="evenodd" d="M4.81967 1.93434C4.94257 1.66947 5.20802 1.5 5.50001 1.5H20.5C20.792 1.5 21.0575 1.66947 21.1803 1.93434C21.3032 2.19922 21.2612 2.51134 21.0727 2.73429L15.25 9.61961V15.75C15.25 16.0099 15.1154 16.2513 14.8943 16.388C14.6732 16.5246 14.3971 16.5371 14.1646 16.4208L11.1646 14.9208C10.9105 14.7938 10.75 14.5341 10.75 14.25V9.61961L4.92733 2.73429C4.73878 2.51134 4.69678 2.19922 4.81967 1.93434ZM7.11649 3L12.0727 8.86071C12.1872 8.9961 12.25 9.16768 12.25 9.345V13.7865L13.75 14.5365V9.345C13.75 9.16768 13.8128 8.9961 13.9273 8.86071L18.8835 3H7.11649Z" fill="black"/>
</g>
<defs>
<filter id="filter0_d" x="0" y="0" width="26" height="26" filterUnits="userSpaceOnUse" color-interpolation-filters="sRGB">
<feFlood flood-opacity="0" result="BackgroundImageFix"/>
<feColorMatrix in="SourceAlpha" type="matrix" values="0 0 0 0 0 0 0 0 0 0 0 0 0 0 0 0 0 0 127 0"/>
<feOffset dy="4"/>
<feGaussianBlur stdDeviation="2"/>
<feColorMatrix type="matrix" values="0 0 0 0 0 0 0 0 0 0 0 0 0 0 0 0 0 0 0.25 0"/>
<feBlend mode="normal" in2="BackgroundImageFix" result="effect1_dropShadow"/>
<feBlend mode="normal" in="SourceGraphic" in2="effect1_dropShadow" result="shape"/>
</filter>
</defs>
</svg>
