<svg width="56" height="56" viewBox="0 0 56 56" fill="none" xmlns="http://www.w3.org/2000/svg">
<rect width="56" height="56" rx="28" fill="#00D1B2" fill-opacity="0.15"/>
<g clip-path="url(#clip0)">
<path d="M16.5575 40C16.4228 40 16.2917 39.9467 16.1944 39.8484C16.0663 39.7188 16.0168 39.5305 16.065 39.3546L17.6252 33.657C16.6539 31.9005 16.1417 29.9135 16.1424 27.8964C16.1452 21.3366 21.4834 16 28.0427 16C31.2241 16.0013 34.2135 17.2405 36.4604 19.4891C38.7069 21.7378 39.9436 24.727 39.9427 27.9059C39.9397 34.4658 34.6015 39.8028 28.0427 39.8028C28.0427 39.8028 28.0377 39.8028 28.0375 39.8028C26.1217 39.8021 24.2223 39.3351 22.5312 38.4507L16.687 39.9833C16.6442 39.9945 16.6006 40 16.5575 40Z" fill="#E5E5E5"/>
<path d="M16.5576 39.4893L18.1733 33.5891C17.1767 31.8622 16.6525 29.9034 16.6532 27.8965C16.6558 21.6184 21.7648 16.5107 28.0427 16.5107C31.0892 16.512 33.9488 17.6978 36.0992 19.85C38.2494 22.0022 39.4332 24.863 39.4321 27.9057C39.4293 34.1837 34.3196 39.2921 28.0427 39.2921C28.0424 39.2921 28.0429 39.2921 28.0427 39.2921H28.0378C26.1317 39.2914 24.2589 38.8133 22.5953 37.906L16.5576 39.4893ZM22.8749 35.8448L23.2208 36.0497C24.674 36.9121 26.34 37.3682 28.0391 37.3691H28.0427C33.2601 37.3691 37.5067 33.1233 37.5089 27.905C37.5098 25.3761 36.5262 22.9981 34.7389 21.2094C32.9514 19.4206 30.5749 18.4349 28.0462 18.4338C22.8246 18.4338 18.5782 22.6791 18.5762 27.8973C18.5754 29.6855 19.0757 31.4268 20.0234 32.9338L20.2487 33.2919L19.2921 36.7841L22.8749 35.8448Z" fill="white"/>
<path d="M16.9536 39.0918L18.5135 33.3956C17.5511 31.7286 17.0452 29.8373 17.0457 27.9002C17.0481 21.8394 21.9804 16.9086 28.0406 16.9086C30.9821 16.9099 33.7427 18.0546 35.8182 20.1323C37.8943 22.21 39.0369 24.9718 39.0358 27.9088C39.0332 33.9698 34.1007 38.9012 28.0412 38.9012C28.0406 38.9012 28.0414 38.9012 28.0412 38.9012H28.0363C26.1962 38.9005 24.3881 38.4387 22.7822 37.5634L16.9536 39.0918Z" fill="#64B161"/>
<path d="M16.5576 39.4893L18.1733 33.5891C17.1767 31.8622 16.6525 29.9034 16.6532 27.8965C16.6558 21.6184 21.7648 16.5107 28.0427 16.5107C31.0892 16.512 33.9488 17.6978 36.0992 19.85C38.2494 22.0022 39.4332 24.863 39.4321 27.9057C39.4293 34.1837 34.3196 39.2921 28.0427 39.2921C28.0424 39.2921 28.0429 39.2921 28.0427 39.2921H28.0378C26.1317 39.2914 24.2589 38.8133 22.5953 37.906L16.5576 39.4893ZM22.8749 35.8448L23.2208 36.0497C24.674 36.9121 26.34 37.3682 28.0391 37.3691H28.0427C33.2601 37.3691 37.5067 33.1233 37.5089 27.905C37.5098 25.3761 36.5262 22.9981 34.7389 21.2094C32.9514 19.4206 30.5749 18.4349 28.0462 18.4338C22.8246 18.4338 18.5782 22.6791 18.5762 27.8973C18.5754 29.6855 19.0757 31.4268 20.0234 32.9338L20.2487 33.2919L19.2921 36.7841L22.8749 35.8448Z" fill="white"/>
<path fill-rule="evenodd" clip-rule="evenodd" d="M25.1962 23.1365C24.9831 22.6627 24.7586 22.6531 24.5557 22.6449C24.3898 22.6378 24.1999 22.6381 24.0104 22.6381C23.8207 22.6381 23.5124 22.7095 23.2516 22.9943C22.9907 23.279 22.2554 23.9675 22.2554 25.3677C22.2554 26.7681 23.2753 28.121 23.4175 28.3111C23.5598 28.501 25.3863 31.4662 28.2788 32.6069C30.6828 33.5551 31.1719 33.3665 31.6937 33.319C32.2156 33.2716 33.3774 32.6306 33.6145 31.9661C33.8518 31.3016 33.8518 30.7321 33.7806 30.6129C33.7093 30.4944 33.5196 30.4232 33.2351 30.2809C32.9505 30.1387 31.5514 29.45 31.2905 29.3552C31.0296 29.2601 30.8399 29.2129 30.6502 29.4978C30.4603 29.7824 29.9154 30.4232 29.7493 30.6129C29.5832 30.8032 29.4172 30.827 29.1326 30.6845C28.8481 30.5419 27.9315 30.2416 26.8442 29.272C25.9982 28.5178 25.4269 27.5862 25.2609 27.3013C25.095 27.0167 25.2581 26.8761 25.3859 26.7206C25.6161 26.4407 26.0023 25.9373 26.0971 25.7476C26.192 25.5576 26.1445 25.3915 26.0735 25.249C26.0023 25.1068 25.4491 23.6994 25.1962 23.1365Z" fill="white"/>
</g>
<defs>
<clipPath id="clip0">
<rect x="16" y="16" width="24" height="24" fill="white"/>
</clipPath>
</defs>
</svg>
