<svg width="124" height="36" viewBox="0 0 124 36" fill="none" xmlns="http://www.w3.org/2000/svg">
<path d="M4.33986 32.6994C4.03531 32.6994 3.7612 32.5926 3.51754 32.3789C3.30436 32.1348 3.19775 31.8601 3.19775 31.5549V1.79836C3.19775 1.46264 3.30436 1.18796 3.51754 0.974328C3.7612 0.760689 4.03531 0.65387 4.33986 0.65387H25.6744C26.0094 0.65387 26.2835 0.760689 26.4967 0.974328C26.7099 1.18796 26.8165 1.46264 26.8165 1.79836V6.10161C26.8165 6.4068 26.7099 6.68147 26.4967 6.92564C26.2835 7.13927 26.0094 7.2461 25.6744 7.2461H11.1011V13.4263H24.6693C25.0044 13.4263 25.2785 13.5484 25.4916 13.7925C25.7048 14.0062 25.8114 14.2808 25.8114 14.6166V18.5994C25.8114 18.9046 25.7048 19.1792 25.4916 19.4234C25.2785 19.637 25.0044 19.7439 24.6693 19.7439H11.1011V26.1072H26.0399C26.3749 26.1072 26.649 26.214 26.8622 26.4276C27.0754 26.6413 27.182 26.9159 27.182 27.2517V31.5549C27.182 31.8601 27.0754 32.1348 26.8622 32.3789C26.649 32.5926 26.3749 32.6994 26.0399 32.6994H4.33986ZM34.0881 32.6994C33.7837 32.6994 33.5095 32.5926 33.2658 32.3789C33.0527 32.1348 32.946 31.8601 32.946 31.5549V1.79836C32.946 1.46264 33.0527 1.18796 33.2658 0.974328C33.5095 0.760689 33.7837 0.65387 34.0881 0.65387H45.966C50.4431 0.65387 53.9151 1.72205 56.382 3.85843C58.849 5.99478 60.1434 9.09254 60.2652 13.1516C60.2955 14.0367 60.3108 15.2117 60.3108 16.6766C60.3108 18.1416 60.2955 19.3013 60.2652 20.1559C60.1128 24.3981 58.849 27.5568 56.4734 29.6322C54.1281 31.677 50.7018 32.6994 46.1944 32.6994H34.0881ZM45.966 26.1072C47.9761 26.1072 49.4533 25.6341 50.3974 24.688C51.3414 23.7114 51.8439 22.1702 51.9049 20.0643C51.966 19.1792 51.9963 18.0347 51.9963 16.6309C51.9963 15.227 51.966 14.0977 51.9049 13.2432C51.8439 11.1984 51.2957 9.68767 50.2603 8.71103C49.2553 7.7344 47.7477 7.2461 45.7376 7.2461H41.1692V26.1072H45.966ZM79.6499 33.1572C75.3556 33.1572 71.9903 32.1043 69.5537 29.9984C67.1478 27.8926 65.9447 24.7185 65.9447 20.4763V1.79836C65.9447 1.46264 66.0514 1.18796 66.2645 0.974328C66.5082 0.760689 66.7823 0.65387 67.0868 0.65387H72.9801C73.3152 0.65387 73.5893 0.760689 73.8024 0.974328C74.0461 1.18796 74.1678 1.46264 74.1678 1.79836V20.4305C74.1678 22.4143 74.6247 23.9098 75.5384 24.9169C76.4824 25.8936 77.8379 26.3819 79.6043 26.3819C81.3403 26.3819 82.6804 25.8783 83.6245 24.8711C84.5685 23.864 85.0407 22.3838 85.0407 20.4305V1.79836C85.0407 1.46264 85.1474 1.18796 85.3605 0.974328C85.6042 0.760689 85.8783 0.65387 86.1828 0.65387H92.1217C92.4569 0.65387 92.731 0.760689 92.9441 0.974328C93.1571 1.18796 93.2638 1.46264 93.2638 1.79836V20.4763C93.2638 24.7185 92.0457 27.8926 89.6091 29.9984C87.2032 32.1043 83.8832 33.1572 79.6499 33.1572ZM108.71 31.1887C108.406 31.1887 108.131 31.0819 107.888 30.8682C107.675 30.6241 107.568 30.3494 107.568 30.0442V21.6666H99.4361C99.1013 21.6666 98.8119 21.5598 98.5681 21.3461C98.355 21.1325 98.2483 20.8578 98.2483 20.5221V17.1802C98.2483 16.8445 98.355 16.5698 98.5681 16.3562C98.8119 16.112 99.1013 15.9899 99.4361 15.9899H107.568V7.88701C107.568 7.55128 107.675 7.2766 107.888 7.06298C108.131 6.84935 108.406 6.74252 108.71 6.74252H112.456C112.791 6.74252 113.065 6.84935 113.278 7.06298C113.492 7.2766 113.598 7.55128 113.598 7.88701V15.9899H121.684C122.019 15.9899 122.294 16.112 122.507 16.3562C122.72 16.5698 122.826 16.8445 122.826 17.1802V20.5221C122.826 20.8578 122.72 21.1325 122.507 21.3461C122.294 21.5598 122.019 21.6666 121.684 21.6666H113.598V30.0442C113.598 30.3494 113.492 30.6241 113.278 30.8682C113.065 31.0819 112.791 31.1887 112.456 31.1887H108.71Z" fill="white"/>
</svg>
