<svg width="16" height="16" viewBox="0 0 16 16" fill="none" xmlns="http://www.w3.org/2000/svg">
<path fill-rule="evenodd" clip-rule="evenodd" d="M8.00033 1.99996C4.68662 1.99996 2.00033 4.68625 2.00033 7.99996C2.00033 11.3137 4.68662 14 8.00033 14C11.314 14 14.0003 11.3137 14.0003 7.99996C14.0003 4.68625 11.314 1.99996 8.00033 1.99996ZM0.666992 7.99996C0.666992 3.94987 3.95024 0.666626 8.00033 0.666626C12.0504 0.666626 15.3337 3.94987 15.3337 7.99996C15.3337 12.05 12.0504 15.3333 8.00033 15.3333C3.95024 15.3333 0.666992 12.05 0.666992 7.99996Z" fill="#3273DC"/>
<path fill-rule="evenodd" clip-rule="evenodd" d="M0.666992 7.99996C0.666992 7.63177 0.965469 7.33329 1.33366 7.33329H14.667C15.0352 7.33329 15.3337 7.63177 15.3337 7.99996C15.3337 8.36815 15.0352 8.66663 14.667 8.66663H1.33366C0.965469 8.66663 0.666992 8.36815 0.666992 7.99996Z" fill="#3273DC"/>
<path fill-rule="evenodd" clip-rule="evenodd" d="M6.00048 7.99996C6.04617 10.0499 6.75116 12.0234 8.00032 13.6328C9.24949 12.0234 9.95448 10.0499 10.0002 7.99996C9.95448 5.95006 9.24949 3.97652 8.00033 2.36716C6.75116 3.97652 6.04617 5.95006 6.00048 7.99996ZM8.00033 1.33329L7.50809 0.883677C5.73159 2.82856 4.722 5.35253 4.66714 7.98607C4.66694 7.99533 4.66694 8.00459 4.66714 8.01384C4.722 10.6474 5.73159 13.1714 7.50809 15.1162C7.6344 15.2545 7.81304 15.3333 8.00033 15.3333C8.18761 15.3333 8.36625 15.2545 8.49256 15.1162C10.2691 13.1714 11.2786 10.6474 11.3335 8.01384C11.3337 8.00459 11.3337 7.99533 11.3335 7.98607C11.2786 5.35253 10.2691 2.82856 8.49256 0.883677L8.00033 1.33329Z" fill="#3273DC"/>
</svg>
