<svg width="16" height="16" viewBox="0 0 16 16" fill="none" xmlns="http://www.w3.org/2000/svg">
<g clip-path="url(#clip0)">
<path d="M13.3334 15.2667C13.2667 15.2667 13.2001 15.2667 13.1334 15.2667C11.0001 15 8.86673 14.2667 7.06673 13.1333C5.40007 12.0667 3.9334 10.6 2.86673 8.93335C1.66673 7.13335 0.933398 5.00002 0.733398 2.86668C0.733398 2.33335 0.866732 1.80002 1.20007 1.40002C1.5334 1.00002 2.00007 0.73335 2.5334 0.666683C2.60007 0.666683 2.66673 0.666683 2.7334 0.666683H4.7334C5.7334 0.666683 6.60007 1.40002 6.7334 2.40002C6.80007 3.00002 6.9334 3.60002 7.1334 4.13335C7.40006 4.86668 7.20007 5.66668 6.66673 6.26668L6.20007 6.73335C7.00007 7.93335 8.00006 9.00002 9.26673 9.80002L9.7334 9.33335C10.2667 8.80002 11.1334 8.60002 11.8667 8.86668C12.4001 9.06668 13.0001 9.20002 13.6001 9.26668C14.6001 9.40002 15.3334 10.2667 15.3334 11.2667V13.2667C15.3334 13.8 15.1334 14.3333 14.7334 14.6667C14.3334 15 13.8667 15.2667 13.3334 15.2667ZM4.7334 2.00002H2.7334C2.5334 2.00002 2.3334 2.13335 2.20007 2.26668C2.1334 2.40002 2.06673 2.53335 2.06673 2.73335C2.26673 4.66668 2.9334 6.53335 4.00007 8.20002C5.00007 9.73335 6.26673 11.0667 7.80006 12C9.46673 13.0667 11.3334 13.7333 13.2667 13.9333C13.5334 13.9333 13.6667 13.8667 13.8001 13.7333C13.9334 13.6 14.0001 13.4667 14.0001 13.2667V11.2667C14.0001 10.9333 13.7334 10.6667 13.4001 10.6C12.7334 10.5333 12.0667 10.3333 11.4001 10.0667C11.1334 10 10.8667 10 10.6667 10.2L9.80006 11.0667C9.60006 11.2667 9.26673 11.3333 9.00007 11.2C7.20007 10.2 5.7334 8.73335 4.7334 6.93335C4.66673 6.66668 4.7334 6.33335 4.9334 6.13335L5.80007 5.26668C5.9334 5.13335 6.00007 4.80002 5.9334 4.60002C5.66673 3.93335 5.5334 3.26668 5.40007 2.60002C5.40007 2.26668 5.06673 2.00002 4.7334 2.00002ZM12.6667 6.66668C12.3334 6.66668 12.0667 6.46668 12.0001 6.13335C11.8001 5.06668 10.9334 4.26668 9.86673 4.00002C9.5334 3.93335 9.26673 3.60002 9.3334 3.20002C9.40007 2.86668 9.7334 2.60002 10.1334 2.66668C11.7334 3.00002 13.0001 4.20002 13.2667 5.80002C13.3334 6.13335 13.1334 6.53335 12.7334 6.60002C12.7334 6.60002 12.7334 6.66668 12.6667 6.66668ZM15.3334 6.60002C15.0001 6.60002 14.7334 6.33335 14.6667 6.00002C14.4001 3.53335 12.4667 1.60002 9.9334 1.26668C9.60006 1.20002 9.3334 0.866683 9.3334 0.53335C9.3334 0.200016 9.7334 -0.0666504 10.0667 -0.0666504C13.2001 0.266683 15.6001 2.66668 15.9334 5.80002C16.0001 6.13335 15.7334 6.46668 15.3334 6.53335C15.4001 6.60002 15.3334 6.60002 15.3334 6.60002Z" fill="#3273DC"/>
</g>
<defs>
<clipPath id="clip0">
<path d="M0 0H16V16H0V0Z" fill="white"/>
</clipPath>
</defs>
</svg>
